<svg width="10" height="14" viewBox="0 0 10 14" fill="none" xmlns="http://www.w3.org/2000/svg">
<path d="M4.66667 0.5C2.08667 0.5 0 2.58988 0 5.17386C0 7.95814 2.94667 11.7974 4.16 13.2596C4.42667 13.5801 4.91333 13.5801 5.18 13.2596C6.38667 11.7974 9.33333 7.95814 9.33333 5.17386C9.33333 2.58988 7.24667 0.5 4.66667 0.5ZM4.66667 6.84309C3.74667 6.84309 3 6.09527 3 5.17386C3 4.25244 3.74667 3.50462 4.66667 3.50462C5.58667 3.50462 6.33333 4.25244 6.33333 5.17386C6.33333 6.09527 5.58667 6.84309 4.66667 6.84309Z" fill="#4A94CC"/>
</svg>
