<svg width="13" height="12" viewBox="0 0 13 12" fill="none" xmlns="http://www.w3.org/2000/svg">
<path d="M11.0188 8.03748L9.43128 7.85623C9.05003 7.81248 8.67503 7.94373 8.40628 8.21248L7.25628 9.36247C5.48753 8.46247 4.03753 7.01873 3.13753 5.24373L4.29378 4.08748C4.56253 3.81873 4.69378 3.44373 4.65003 3.06248L4.46878 1.48748C4.39378 0.856226 3.86253 0.381226 3.22503 0.381226H2.14378C1.43753 0.381226 0.850025 0.968726 0.893775 1.67498C1.22503 7.01248 5.49378 11.275 10.825 11.6062C11.5313 11.65 12.1188 11.0625 12.1188 10.3562V9.27497C12.125 8.64373 11.65 8.11248 11.0188 8.03748Z" fill="#4A94CC"/>
</svg>
