<svg width="13" height="14" viewBox="0 0 13 14" fill="none" xmlns="http://www.w3.org/2000/svg">
<path d="M6.5 13.25C5.63542 13.25 4.82292 13.0859 4.0625 12.7578C3.30208 12.4297 2.64062 11.9844 2.07812 11.4219C1.51562 10.8594 1.07031 10.1979 0.742188 9.4375C0.414062 8.67708 0.25 7.86458 0.25 7C0.25 6.13542 0.414062 5.32292 0.742188 4.5625C1.07031 3.80208 1.51562 3.14062 2.07812 2.57812C2.64062 2.01562 3.30208 1.57031 4.0625 1.24219C4.82292 0.914062 5.63542 0.75 6.5 0.75C7.36458 0.75 8.17708 0.914062 8.9375 1.24219C9.69792 1.57031 10.3594 2.01562 10.9219 2.57812C11.4844 3.14062 11.9297 3.80208 12.2578 4.5625C12.5859 5.32292 12.75 6.13542 12.75 7C12.75 7.86458 12.5859 8.67708 12.2578 9.4375C11.9297 10.1979 11.4844 10.8594 10.9219 11.4219C10.3594 11.9844 9.69792 12.4297 8.9375 12.7578C8.17708 13.0859 7.36458 13.25 6.5 13.25ZM6.5 12C7.89583 12 9.07812 11.5156 10.0469 10.5469C11.0156 9.57812 11.5 8.39583 11.5 7C11.5 6.92708 11.4974 6.85156 11.4922 6.77344C11.487 6.69531 11.4844 6.63021 11.4844 6.57812C11.4323 6.88021 11.2917 7.13021 11.0625 7.32813C10.8333 7.52604 10.5625 7.625 10.25 7.625H9C8.65625 7.625 8.36198 7.5026 8.11719 7.25781C7.8724 7.01302 7.75 6.71875 7.75 6.375V5.75H5.25V4.5C5.25 4.15625 5.3724 3.86198 5.61719 3.61719C5.86198 3.3724 6.15625 3.25 6.5 3.25H7.125C7.125 3.01042 7.1901 2.79948 7.32031 2.61719C7.45052 2.4349 7.60938 2.28646 7.79688 2.17188C7.58854 2.11979 7.3776 2.07812 7.16406 2.04688C6.95052 2.01562 6.72917 2 6.5 2C5.10417 2 3.92188 2.48438 2.95313 3.45313C1.98438 4.42188 1.5 5.60417 1.5 7H4.625C5.3125 7 5.90104 7.24479 6.39062 7.73438C6.88021 8.22396 7.125 8.8125 7.125 9.5V10.125H5.25V11.8438C5.45833 11.8958 5.66406 11.9349 5.86719 11.9609C6.07031 11.987 6.28125 12 6.5 12Z" fill="#4A94CC"/>
</svg>
